<?xml version="1.0" encoding="utf-8"?>
<!-- Generator: Adobe Illustrator 23.0.2, SVG Export Plug-In . SVG Version: 6.00 Build 0)  -->
<svg version="1.1" id="habits" xmlns="http://www.w3.org/2000/svg" xmlns:xlink="http://www.w3.org/1999/xlink" x="0px" y="0px"
	 viewBox="0 0 100 100" style="enable-background:new 0 0 100 100;" xml:space="preserve">
<style type="text/css">
	.st0{fill-rule:evenodd;clip-rule:evenodd;fill:#00697F;}
	.st1{fill-rule:evenodd;clip-rule:evenodd;fill:#07D391;}
</style>
<path class="st0" d="M18.8,77.7l-0.1-53l63.2-1.6L81.6,80L18.8,77.7z M11,17.2l0.1,68.2L89,87.7l0-72.4L11,17.2z"/>
<path class="st1" d="M83.7,88.1l-0.2-0.3c-1.8-2.7-8.9-13.1-11.3-16.6c-4.2-6-9.1-13-13.9-20c-0.2-0.4-0.3-1.1-0.1-1.5
	c1.5-2.2,3.1-4.4,4.6-6.6l1.9-2.7c2.6-3.7,10.1-13.5,12-17.6c0.1-0.1,0.5-0.7,1.3-1.7c0.7-1,1.9-2.5,1.9-2.7
	c0.1-0.3,0.1-0.5,0.1-0.8c0.1-0.5,0.1-0.9,0.3-1.4c0.3-0.8,0.7-1.6,1.1-2.4c0.3-0.6,0.6-1.3,0.9-2c0.1-0.3,0.2-0.7,0.3-1.1
	c0-0.1,0-0.2,0.1-0.4l-0.8-0.2l-0.2-0.9c-0.2-0.7-0.3-1.3-0.5-1.9c0,0-0.2-0.1-0.2-0.1c-0.3,0.1-0.8,0.3-1.3,0.5
	C79.5,8,79.2,8.1,79,8.2l-1,0.4l0.2-0.6c0.6-2,0-2.8-0.5-2.9C77.4,5,76.2,5.4,75,7c-1.3,1.9-2.7,3.8-3.9,5.7
	c-0.7,1.1-1.5,2.2-2.2,3.3c-0.3,0.4-0.6,0.7-0.9,1l-0.2,0.3c-1.1,1.2-7,8.5-9.6,12c-1.1,1.4-1.9,2.6-2.3,3.1
	c-0.9,1.2-1.7,2.4-2.4,3.6c-0.4,0.7-0.9,1.4-1.3,2.1c-0.3,0.5-0.6,0.8-1.1,0.8h0c-0.6,0-0.8-0.3-1.2-1c-0.3-0.6-1.1-1.7-2-3.2
	c-2.4-4-7.2-11.1-9.6-14.6c-0.4-0.5-0.7-1.1-1.1-1.7c-1.1-1.8-2.2-3.6-4-4.9c-0.5-0.4-1-1.2-1.5-2.3c-0.5-0.9-1.1-2-1.5-2.3
	c-1-0.7-5-0.6-8.7,0.1c-2.6,0.5-4.2,1.1-4.2,1.7c-0.4,1.1,1.4,3.6,2.5,5.1c0.3,0.5,0.6,0.9,0.8,1.1l2,3.3
	c3.6,5.9,10.2,16.4,12.7,20.4c1.1,1.7,2.2,3.4,3.3,5.2c1.1,1.7,2.2,3.4,3.3,5.1c0.3,0.4,0.3,1.1,0,1.6c-0.5,0.8-1,1.6-1.5,2.4
	c-0.3,0.4-0.5,0.7-0.8,1.1l-1,1.5c-5.9,9-15.2,23.2-19.2,32.9c0.4,0.3,3.3,0.8,5.6,0.9c1,0,1.6-0.1,1.8-0.2c0.4-0.3,1-0.2,1.4-0.1
	c0.1,0,0.3,0.1,0.3,0.1c0.1,0,0.2,0,0.4,0.1c0,0,0.1,0,0.1,0c0.2-0.1,0.4-0.2,0.6-0.4c0.7-0.4,1.4-0.8,1.8-1.4
	c1.5-2.2,3.2-4.6,4.9-7.1c3.2-4.6,9-13.4,11.8-17.5c0.2-0.3,0.4-0.5,0.6-0.8l0.8-1l0.7,0.8c0.1,0.1,0.2,0.2,0.3,0.3
	c0.8,1.3,2,2.8,3.1,4.4c1.3,1.8,2.7,3.7,3.7,5.2c1.6,2.4,6.1,9.1,7.7,11.7c0.5,0.9,1.1,1.8,1.6,2.6c1.3,2,2.6,3.7,4.2,5.1
	c0,0,0.1,0,0.2,0.1c0.1,0,0.2,0.1,0.4,0.1c0.3,0.1,0.7,0.2,1,0.4l0.7,0.3c1.4,0.5,2.1,0.7,2.9,0.2c0.2-0.1,0.4-0.2,0.7-0.2
	c0,0,0.1,0,0.1,0c0.4,0,0.8,0.1,1.1,0.2c0.6,0.3,1.1,0.6,1.7,0.8c0.8,0.4,1.6,0.8,2.4,1.1c0.1,0,0.3,0.1,0.5,0
	c0.2,0,0.4-0.1,0.4-0.2c0.2-0.2,0.4-0.4,0.6-0.6c0.6-0.6,1.2-1.1,0.9-2.1l-0.1-0.2l0.4-0.1c1-0.2,1.4-0.3,0.8-1.6
	C85,90.1,84.5,89.3,83.7,88.1"/>
</svg>
