<?xml version="1.0" encoding="utf-8"?>
<!-- Generator: Adobe Illustrator 23.0.2, SVG Export Plug-In . SVG Version: 6.00 Build 0)  -->
<svg version="1.1" id="reminder" xmlns="http://www.w3.org/2000/svg" xmlns:xlink="http://www.w3.org/1999/xlink" x="0px" y="0px"
	 viewBox="0 0 100 100" style="enable-background:new 0 0 100 100;" xml:space="preserve">
<style type="text/css">
	.st0{fill-rule:evenodd;clip-rule:evenodd;fill:#00697F;}
	.st1{fill-rule:evenodd;clip-rule:evenodd;fill:#07D391;}
</style>
<path class="st0" d="M24.7,40.3c2.7,2,5.8,3.1,9,3.1c4.1,0,8.1-1.8,11.3-5.1c0.8-0.8,1.7-1.8,2-2.2c0.1-0.2,0.3-0.4,0.4-0.6
	C50.5,29.4,50,23,46,18.1c-0.9-1.1-1.7-2.1-2-2.4c-0.2-0.2-0.4-0.4-0.7-0.5C40.5,13.7,37.7,13,35,13c-3.8,0-7.5,1.4-10.9,4.2
	c-0.2,0.2-0.4,0.3-0.5,0.5c-0.2,0.3-1,1.4-1.7,2.5C17,27.3,18.3,35.6,24.7,40.3"/>
<path class="st0" d="M65.5,64.7c0-0.5,0-1-0.1-1.7v-0.8h-0.8c-1.6,0-15.4,0.4-15.4,0.4s-0.1-14-0.7-15.1L48.3,47h-0.6h-2h-3.5h-3.5
	c-5.6,0-11.7-0.1-17.8,0.2c-3.6,0.2-6.8,0.4-9.9,0.7c-0.3,0-0.7,0-1.1,0.1c-3.2,0.9-5.8,3-7.1,5.7c-0.1,0.3-0.2,0.5-0.3,0.8
	c-0.2,0.3-0.2,0.7-0.2,1.1c0,1.6-0.1,3.2-0.1,4.8c-0.2,7.3-0.4,11.5,0.1,19c0.1,0.9,0.6,1.7,1.4,2.2c0.5,0.4,1,0.6,1.7,0.6
	c3.4,0,7,0,10.6-0.1c0,0.9,0.1,5.2,0.1,5.9c0,0.4,0.1,0.8,0.3,1.2c0.4,1,1.3,1.6,2.4,1.6c5.4,0,10.8,0.1,16.1,0.1
	C40.2,91,45.7,91,51,91c1,0,1.8-0.4,2.2-1.2c0.5-0.8,0.4-7.3,0-8.1v-0.3c2.9-0.1,5.7-0.1,8.4-0.1c0.5,0,1-0.1,1.4-0.4
	c0.7,0,1.5-0.2,2-0.6c0.6-0.5,0.9-1.2,0.9-1.9c0-4.5,0-3.1-0.2-7.5c0-1.3-0.1-2.7-0.1-4C65.6,65.7,65.6,65.2,65.5,64.7"/>
<path class="st1" d="M53.4,41.3c1.6,9,9.2,17.2,19.7,16c5.7-0.7,10.9-3.4,14.5-7.4c0.1-0.1,0.1-0.1,0.2-0.2c0.1-0.1,0.2-0.2,0.2-0.3
	c0.1-0.2,0.3-0.5,0.3-0.7l0-0.2c0.2-1.2-0.7-2.4-2-2.7c-0.8-0.1-1.5,0.1-2.1,0.5c-0.2,0.2-0.4,0.4-0.5,0.6c0,0.1-0.1,0.1-0.1,0.2
	c0,0,0,0,0,0c-3.6,4-8.9,6.6-14.5,5.6c-9.2-1.7-12.5-12-10.3-19.5c1.9-6.5,8.2-13,16.1-11.4c4.7,1,9.6,4.2,11.3,8.5
	c0.2,0.5,0.4,0.9,0.5,1.4c-0.7-0.5-1.3-1-2-1.5c-1.1-0.7-2.5-0.8-3.5,0.2c-0.8,0.8-0.9,2.5,0.3,3.2c1.5,1,2.8,2,3.9,3.3
	c0.7,0.7,1.3,1.5,1.9,2.4c0.1,0.2,0.2,0.4,0.4,0.6c0.6,0.9,1.5,1.2,2.3,1c0.7,0,1.3-0.2,1.7-0.8c0.3-0.4,0.5-0.7,0.8-1
	c0.3-0.4,0.6-0.7,0.9-1.1c1-1.2,2.1-2.3,3.2-3.4c2.2-2-1.5-5.1-3.7-3c-0.3,0.3-0.7,0.6-1,1c-0.6-3-1.8-5.8-4-8.3
	c-6.1-6.8-17-9.6-24.9-4.4C55.8,24.5,51.9,33.3,53.4,41.3"/>
<path class="st1" d="M69.9,42.3c2.8,1.4,5.5,2.9,8.1,4.5c2.6,1.6,4.9-2.4,2.4-4c-2.2-1.4-4.6-2.7-6.9-3.9c0.2-3.3,0.5-6.7,0.8-10
	c0.2-3-4.5-2.9-4.7,0c-0.3,3.7-0.7,7.3-0.8,11c0,0.1,0,0.1,0,0.2C68.6,41,68.9,41.8,69.9,42.3"/>
</svg>
