<?xml version="1.0" encoding="utf-8"?>
<!-- Generator: Adobe Illustrator 23.0.2, SVG Export Plug-In . SVG Version: 6.00 Build 0)  -->
<svg version="1.1" id="progression" xmlns="http://www.w3.org/2000/svg" xmlns:xlink="http://www.w3.org/1999/xlink" x="0px"
	 y="0px" viewBox="0 0 100 100" style="enable-background:new 0 0 100 100;" xml:space="preserve">
<style type="text/css">
	.st0{clip-path:url(#SVGID_5_);}
	.st1{clip-path:url(#SVGID_6_);}
	.st2{clip-path:url(#SVGID_7_);}
	.st3{fill-rule:evenodd;clip-rule:evenodd;fill:#07D391;}
</style>
<g>
	<defs>
		<path id="SVGID_1_" d="M89,20.6c0-0.3,0-0.5-0.1-0.7c-0.1-1.2-0.9-2.3-2.2-2.4c-3.9-0.2-7.7-0.3-11.6-0.3c-0.6,0-1.1,0.2-1.5,0.6
			c-0.7,0.3-1.3,1.1-1.3,2.2c0,23.3-0.2,46.5-0.2,69.8c0,0.3,0,0.5,0.1,0.8c0.1,1.1,0.9,2.2,2.2,2.3c4.2,0.3,8.4,0.5,12.6,0.5h0.2
			h0.2c3.5,0,2.2-5.8,2.2-8.2c0.1-3.2,0.2-6.3,0.3-9.5c0.1-6.1,0.1-12.3,0-18.4C89.7,45.1,89.2,32.9,89,20.6"/>
	</defs>
	<defs>
		<path id="SVGID_2_" d="M66.2,38.4c0-0.5-0.2-1-0.5-1.3c-0.4-0.7-1.2-1.3-2.3-1.4c-4.6-0.4-9.2-0.2-13.9,0.2
			c-0.5,0.1-1,0.2-1.3,0.4c-1.1,0.2-1.9,1-1.8,2.3c2.1,17.1,1.2,34.4,3.1,51.6c0,0.2,0.1,0.3,0.1,0.4c0,1.3,0.9,2.5,2.7,2.5
			c3.1,0,16.4,1.9,15.8-3C66,73,67,55.6,66.2,38.4"/>
	</defs>
	<defs>
		<path id="SVGID_3_" d="M44.9,51.6c-0.2-1-1-1.8-2.4-1.6c-3.7,0.5-7.4,0.7-11.2,1c-0.2,0-0.4,0-0.6,0.1c-1.3,0-2.6,0.8-2.6,2.4
			c0.5,12.3,1,24.5,1.3,36.8c0,0.5,0.2,0.9,0.4,1.3c0.2,1,1,2,2.5,2c3.2,0,6.4-0.2,9.6-0.3c0.4,0,0.8-0.1,1.1-0.2
			c1.5,0.4,3.4-0.3,3.3-2.3c-0.5-12.6-0.8-25.2-1-37.8C45.4,52.4,45.2,51.9,44.9,51.6"/>
	</defs>
	<defs>
		<path id="SVGID_4_" d="M21,72.1c-2.5-0.2-5.1-0.2-7.6-0.2c-0.3,0-0.5,0-0.8,0.1c-1.2,0.1-2.3,0.9-2.3,2.3
			C10.1,79.8,10,85.2,10,90.7c0,0.2,0,0.5,0.1,0.7c0.1,1.1,1,2.1,2.5,2.1h8.8c1.3,0,2.1-0.8,2.4-1.7c0.4-0.4,0.7-0.9,0.7-1.6V74.3
			C24.5,72.3,22.6,71.6,21,72.1"/>
	</defs>
	<use xlink:href="#SVGID_1_"  style="overflow:visible;fill-rule:evenodd;clip-rule:evenodd;fill:#00697F;"/>
	<use xlink:href="#SVGID_2_"  style="overflow:visible;fill-rule:evenodd;clip-rule:evenodd;fill:#00697F;"/>
	<use xlink:href="#SVGID_3_"  style="overflow:visible;fill-rule:evenodd;clip-rule:evenodd;fill:#00697F;"/>
	<use xlink:href="#SVGID_4_"  style="overflow:visible;fill-rule:evenodd;clip-rule:evenodd;fill:#00697F;"/>
	<clipPath id="SVGID_5_">
		<use xlink:href="#SVGID_1_"  style="overflow:visible;"/>
	</clipPath>
	<clipPath id="SVGID_6_" class="st0">
		<use xlink:href="#SVGID_2_"  style="overflow:visible;"/>
	</clipPath>
	<clipPath id="SVGID_7_" class="st1">
		<use xlink:href="#SVGID_3_"  style="overflow:visible;"/>
	</clipPath>
	<clipPath id="SVGID_8_" class="st2">
		<use xlink:href="#SVGID_4_"  style="overflow:visible;"/>
	</clipPath>
</g>
<path class="st3" d="M16.7,49.9c0.6,0,1.2-0.2,1.8-0.7c7.4-5.7,24.2-20.4,31.9-27.7c0,1.3-0.1,2.6-0.1,3.7c0,0.9,0.3,1.7,0.9,2.3
	c0.6,0.6,1.5,1,2.4,1c1.6,0,3.2-1.1,3.2-3.2c0-3.9,0.2-7.9,0.5-11.7c0.1-0.9-0.2-1.7-0.8-2.3c-0.6-0.6-1.4-1-2.3-1
	c-0.2,0-0.4-0.1-0.6-0.1C49.8,10,46.1,10,42.3,10c-2.1,0-3.2,1.7-3.2,3.3c0,1.6,1.1,3.3,3.2,3.3h3.8C38.4,23.8,22.2,38.1,15,43.7
	c-1.2,0.9-1.7,2.4-1.2,4C14.3,49,15.5,49.9,16.7,49.9"/>
</svg>
