<?xml version="1.0" encoding="utf-8"?>
<!-- Generator: Adobe Illustrator 23.0.2, SVG Export Plug-In . SVG Version: 6.00 Build 0)  -->
<svg version="1.1" id="Layer_1" xmlns="http://www.w3.org/2000/svg" xmlns:xlink="http://www.w3.org/1999/xlink" x="0px" y="0px"
	 viewBox="0 0 588 174.2" style="enable-background:new 0 0 588 174.2;" xml:space="preserve">
<style type="text/css">
	.st0{fill:#A6A6A6;fill-opacity:0.9961;}
	.st1{fill-opacity:0.9176;}
	.st2{fill:#FFFFFF;}
	.st3{fill:#FFFFFF;fill-opacity:0.9176;}
	.st4{fill:#5A0FC8;fill-opacity:0.9176;}
</style>
<g>
	<g>
		<path class="st0" d="M566.8,174.2H20.6C9.4,174.2,0,164.8,0,153.6V20.6C0,9.4,9.4,0,20.6,0h546.2C578.3,0,588,9.4,588,20.6v133.1
			C588,164.8,578.3,174.2,566.8,174.2z"/>
		<path class="st1" d="M583.9,153.6c0,9.1-7.3,16.7-16.7,16.7H20.9c-9.1,0-16.7-7.7-16.7-16.7V20.6c0-9.1,7.7-16.7,16.7-16.7h546.2
			c9.4,0,16.7,7.7,16.7,16.7V153.6z"/>
	</g>
	<g>
		<g>
			<path class="st2" d="M201.9,27.1h3.4v23.4h11.2v2.8h-14.6V27.1z"/>
			<path class="st2" d="M230.6,53.3l-0.3-2.4h-0.1c-1.1,1.5-3.1,2.8-5.8,2.8c-3.8,0-5.8-2.7-5.8-5.4c0-4.6,4-7,11.3-7V41
				c0-1.6-0.4-4.4-4.3-4.4c-1.8,0-3.6,0.5-4.9,1.4l-0.8-2.3c1.6-1,3.8-1.7,6.2-1.7c5.8,0,7.2,3.9,7.2,7.7v7c0,1.6,0.1,3.2,0.3,4.5
				H230.6z M230.1,43.7c-3.7-0.1-8,0.6-8,4.2c0,2.2,1.5,3.3,3.2,3.3c2.5,0,4-1.6,4.6-3.2c0.1-0.4,0.2-0.7,0.2-1.1V43.7z"/>
			<path class="st2" d="M254.7,48.2c0,1.9,0,3.7,0.2,5.1h-3l-0.2-3.1h-0.1c-0.9,1.5-2.9,3.5-6.2,3.5c-3,0-6.5-1.6-6.5-8.2v-11h3.4
				v10.4c0,3.6,1.1,6,4.2,6c2.3,0,3.9-1.6,4.5-3.1c0.2-0.5,0.3-1.1,0.3-1.8V34.5h3.4V48.2z"/>
			<path class="st2" d="M260.4,39.6c0-1.9,0-3.5-0.2-5.1h3l0.2,3.1h0.1c0.9-1.8,3.1-3.5,6.2-3.5c2.6,0,6.7,1.6,6.7,8v11.2H273V42.5
				c0-3-1.1-5.6-4.4-5.6c-2.3,0-4,1.6-4.6,3.5c-0.2,0.4-0.2,1-0.2,1.6v11.3h-3.4V39.6z"/>
			<path class="st2" d="M295.4,52.6c-0.9,0.5-2.9,1.1-5.4,1.1c-5.7,0-9.4-3.9-9.4-9.6c0-5.8,4-10,10.1-10c2,0,3.8,0.5,4.7,1
				l-0.8,2.6c-0.8-0.5-2.1-0.9-4-0.9c-4.3,0-6.7,3.2-6.7,7.1c0,4.4,2.8,7,6.5,7c1.9,0,3.2-0.5,4.2-0.9L295.4,52.6z"/>
			<path class="st2" d="M299.4,25.7h3.4v11.8h0.1c0.5-1,1.4-1.8,2.5-2.4c1-0.6,2.2-1,3.5-1c2.5,0,6.6,1.6,6.6,8.1v11.2H312V42.5
				c0-3-1.1-5.6-4.4-5.6c-2.2,0-4,1.6-4.6,3.4c-0.2,0.5-0.2,1-0.2,1.6v11.4h-3.4V25.7z"/>
			<path class="st2" d="M329.2,39.6c0-1.9,0-3.5-0.2-5.1h3l0.2,3.1h0.1c0.9-1.8,3.1-3.5,6.2-3.5c2.6,0,6.7,1.6,6.7,8v11.2h-3.4V42.5
				c0-3-1.1-5.6-4.4-5.6c-2.3,0-4,1.6-4.6,3.5c-0.2,0.4-0.2,1-0.2,1.6v11.3h-3.4V39.6z"/>
			<path class="st2" d="M367.9,43.8c0,7-4.8,10-9.4,10c-5.1,0-9-3.7-9-9.7c0-6.3,4.1-10,9.3-10C364.2,34.1,367.9,38,367.9,43.8z
				 M352.9,44c0,4.1,2.4,7.2,5.7,7.2c3.3,0,5.7-3.1,5.7-7.3c0-3.2-1.6-7.2-5.6-7.2S352.9,40.4,352.9,44z"/>
			<path class="st2" d="M373.3,34.5l2.5,9.6c0.5,2.1,1.1,4,1.4,6h0.1c0.4-1.9,1.1-3.9,1.7-6l3.1-9.6h2.9l2.9,9.4
				c0.7,2.3,1.2,4.2,1.7,6.1h0.1c0.3-1.9,0.8-3.9,1.4-6.1l2.7-9.5h3.4l-6.1,18.8H388l-2.9-9c-0.7-2.1-1.2-4-1.7-6.2h-0.1
				c-0.5,2.3-1.1,4.2-1.7,6.2l-3,8.9h-3.1l-5.7-18.8H373.3z"/>
			<path class="st2" d="M419.2,53.3L419,51h-0.1c-1.1,1.5-3.1,2.8-5.8,2.8c-3.8,0-5.8-2.7-5.8-5.4c0-4.6,4-7,11.3-7V41
				c0-1.6-0.4-4.4-4.3-4.4c-1.8,0-3.6,0.5-4.9,1.4l-0.8-2.3c1.6-1,3.8-1.7,6.2-1.7c5.8,0,7.2,3.9,7.2,7.7v7c0,1.6,0.1,3.2,0.3,4.5
				H419.2z M418.7,43.7c-3.7-0.1-8,0.6-8,4.2c0,2.2,1.5,3.3,3.2,3.3c2.5,0,4-1.6,4.6-3.2c0.1-0.4,0.2-0.7,0.2-1.1V43.7z"/>
			<path class="st2" d="M427.1,49.8c1,0.7,2.8,1.4,4.5,1.4c2.5,0,3.7-1.2,3.7-2.8c0-1.6-1-2.5-3.5-3.5c-3.4-1.2-5-3.1-5-5.3
				c0-3,2.5-5.5,6.5-5.5c1.9,0,3.6,0.5,4.6,1.2l-0.9,2.5c-0.7-0.5-2.1-1.1-3.9-1.1c-2,0-3.2,1.2-3.2,2.6c0,1.6,1.1,2.3,3.6,3.2
				c3.3,1.2,4.9,2.9,4.9,5.7c0,3.3-2.6,5.6-7,5.6c-2.1,0-4-0.5-5.3-1.3L427.1,49.8z"/>
		</g>
		<g>
			<path class="st3" d="M278,67.9l-15.9,63.3h-9.3l-13.1-52.5l-12.2,52.5h-9.6l-16.2-63.3h9l12.6,51.9l12.5-51.9h8.5l12.9,53.6
				L270,67.9H278z"/>
			<path class="st3" d="M305.2,132c-7.5,0-13.4-2.1-17.5-6.4c-4.2-4.3-6.2-10.4-6.2-18.3c0-7.8,2-14,6-18.6c4-4.6,9.3-6.9,15.8-6.9
				c2.9,0,5.5,0.4,7.8,1.3c2.2,0.9,4.2,2.2,5.9,4c1.7,1.8,3,4.1,3.9,6.7c0.9,2.6,1.3,5.9,1.3,9.7v4.4h-32.9c0,5.6,1.4,9.9,4.2,12.9
				c2.8,3,6.6,4.5,11.5,4.5c1.8,0,3.5-0.2,5.2-0.6c1.7-0.4,3.2-1,4.6-1.6c1.4-0.7,2.7-1.4,3.7-2c1-0.6,1.8-1.3,2.5-1.8h0.5v9
				c-0.9,0.4-2.1,0.8-3.5,1.4c-1.4,0.6-2.6,1-3.7,1.3c-1.6,0.4-3,0.7-4.2,1C308.7,131.9,307.1,132,305.2,132z M314.4,101.7
				c-0.1-2.3-0.3-4.2-0.8-5.9c-0.5-1.6-1.1-3-2-4.2c-0.9-1.3-2.1-2.2-3.6-2.9c-1.5-0.7-3.3-1-5.4-1c-2.1,0-3.9,0.3-5.4,1
				c-1.5,0.7-2.8,1.6-4.1,2.9c-1.2,1.3-2.1,2.8-2.7,4.4c-0.6,1.6-1,3.5-1.2,5.6H314.4z"/>
			<path class="st3" d="M362.1,107.4c0-5.8-0.9-10.3-2.6-13.3c-1.7-3-4.5-4.5-8.3-4.5c-2.2,0-4.4,0.5-6.6,1.5c-2.2,1-4.2,2.2-6,3.7
				V123c2,1.1,3.8,1.8,5.3,2.3c1.5,0.4,3.2,0.7,5.1,0.7c4,0,7.2-1.5,9.5-4.5C360.9,118.5,362.1,113.8,362.1,107.4z M369.9,106.5
				c0,7.9-1.8,14.3-5.5,19.1c-3.7,4.8-8.3,7.2-13.9,7.2c-2.5,0-4.7-0.3-6.5-1c-1.8-0.6-3.6-1.5-5.3-2.6l-0.5,1.8h-7.3V65.3h7.8V88
				c2-1.8,4.1-3.3,6.4-4.5c2.3-1.2,4.9-1.8,7.8-1.8c5.2,0,9.4,2.2,12.4,6.6C368.4,92.7,369.9,98.8,369.9,106.5z"/>
			<path class="st3" d="M392.4,131.2l20.9-63.3h10.2l20.9,63.3h-9.1l-5.8-18.2h-22.2l-5.8,18.2H392.4z M427.3,106l-8.9-27.7
				l-8.9,27.7H427.3z"/>
			<path class="st3" d="M489.5,105.8c0,8-1.9,14.4-5.6,19.1c-3.7,4.7-8.4,7.1-14.1,7.1c-2.3,0-4.3-0.3-6.1-0.8
				c-1.8-0.5-3.6-1.4-5.5-2.5v19.8h-7.8v-65h7.8v4.6c1.9-1.8,4.1-3.3,6.5-4.5c2.4-1.2,5-1.8,7.8-1.8c5.3,0,9.5,2.2,12.5,6.5
				C488,92.6,489.5,98.5,489.5,105.8z M481.7,106.9c0-5.5-0.9-9.8-2.6-12.8c-1.7-3-4.5-4.6-8.3-4.6c-2.2,0-4.4,0.5-6.5,1.5
				c-2.1,1-4.1,2.3-6,3.9v27.4c2.1,1,3.9,1.7,5.3,2.1c1.5,0.4,3.2,0.6,5.1,0.6c4.1,0,7.3-1.5,9.6-4.6S481.7,112.9,481.7,106.9z"/>
			<path class="st3" d="M537.2,105.8c0,8-1.9,14.4-5.6,19.1c-3.7,4.7-8.4,7.1-14.1,7.1c-2.3,0-4.3-0.3-6.1-0.8
				c-1.8-0.5-3.6-1.4-5.5-2.5v19.8h-7.8v-65h7.8v4.6c1.9-1.8,4.1-3.3,6.5-4.5c2.4-1.2,5-1.8,7.8-1.8c5.3,0,9.5,2.2,12.5,6.5
				C535.7,92.6,537.2,98.5,537.2,105.8z M529.4,106.9c0-5.5-0.9-9.8-2.6-12.8c-1.7-3-4.5-4.6-8.3-4.6c-2.2,0-4.4,0.5-6.5,1.5
				c-2.1,1-4.1,2.3-6,3.9v27.4c2.1,1,3.9,1.7,5.3,2.1c1.5,0.4,3.2,0.6,5.1,0.6c4.1,0,7.3-1.5,9.6-4.6
				C528.2,117.4,529.4,112.9,529.4,106.9z"/>
		</g>
	</g>
	<g>
		<path class="st3" d="M142.7,103.4l3.6-9.1h10.4l-4.9-13.8l6.2-15.6l17.7,47h-13l-3-8.4H142.7z"/>
		<path class="st4" d="M131.5,109.3l18.9-47l-12.6,0l-13,30.3l-9.2-30.3h-9.6l-9.9,30.3l-7-13.8l-6.3,19.4l6.4,11h12.4l8.9-27.2
			l8.5,27.2H131.5z"/>
		<path class="st3" d="M62.8,93.2h7.7c2.3,0,4.4-0.3,6.3-0.8l2-6.2L84.4,69c-0.4-0.7-0.9-1.3-1.5-1.9c-2.9-3.2-7.1-4.8-12.6-4.8
			H50.9v47h11.9V93.2z M73,73.1c1.1,1.1,1.7,2.6,1.7,4.5c0,1.9-0.5,3.4-1.5,4.5c-1.1,1.2-3.1,1.9-6,1.9h-4.5V71.4h4.5
			C70,71.4,71.9,72,73,73.1z"/>
	</g>
</g>
</svg>
