<?xml version="1.0" encoding="utf-8"?>
<!-- Generator: Adobe Illustrator 23.0.2, SVG Export Plug-In . SVG Version: 6.00 Build 0)  -->
<svg version="1.1" xmlns="http://www.w3.org/2000/svg" xmlns:xlink="http://www.w3.org/1999/xlink" x="0px" y="0px"
	 viewBox="0 0 486.4 174.2" style="enable-background:new 0 0 486.4 174.2;" xml:space="preserve">
<style type="text/css">
	.st0{display:none;fill:#A6A6A6;fill-opacity:0.9961;}
	.st1{fill-opacity:0.9176;}
	.st2{fill:#FFFFFF;}
	.st3{display:none;}
	.st4{display:inline;fill:#FFFFFF;fill-opacity:0.9176;}
	.st5{font-family:'MyriadPro-Regular';}
	.st6{font-size:97.6746px;}
	.st7{fill:#F9A620;}
	.st8{fill:#E36F25;}
</style>
<g id="Layer_1">
	<g>
		<g>
			<path class="st0" d="M566.8,174.2H20.6C9.4,174.2,0,164.8,0,153.6v-133C0,9.4,9.4,0,20.6,0h546.2C578.3,0,588,9.4,588,20.6v133.1
				C588,164.8,578.3,174.2,566.8,174.2z"/>
			<path class="st1" d="M483.9,153.6c0,9.1-7.3,16.7-16.7,16.7H20.9c-9.1,0-16.7-7.7-16.7-16.7v-133c0-9.1,7.7-16.7,16.7-16.7h446.2
				c9.4,0,16.7,7.7,16.7,16.7L483.9,153.6L483.9,153.6z"/>
		</g>
		<g>
			<g>
				<path class="st2" d="M180.9,30.1h3.4v23.4h11.2v2.8h-14.6L180.9,30.1L180.9,30.1z"/>
				<path class="st2" d="M209.6,56.3l-0.3-2.4h-0.1c-1.1,1.5-3.1,2.8-5.8,2.8c-3.8,0-5.8-2.7-5.8-5.4c0-4.6,4-7,11.3-7V44
					c0-1.6-0.4-4.4-4.3-4.4c-1.8,0-3.6,0.5-4.9,1.4l-0.8-2.3c1.6-1,3.8-1.7,6.2-1.7c5.8,0,7.2,3.9,7.2,7.7v7c0,1.6,0.1,3.2,0.3,4.5
					L209.6,56.3L209.6,56.3z M209.1,46.7c-3.7-0.1-8,0.6-8,4.2c0,2.2,1.5,3.3,3.2,3.3c2.5,0,4-1.6,4.6-3.2c0.1-0.4,0.2-0.7,0.2-1.1
					V46.7z"/>
				<path class="st2" d="M233.7,51.2c0,1.9,0,3.7,0.2,5.1h-3l-0.2-3.1h-0.1c-0.9,1.5-2.9,3.5-6.2,3.5c-3,0-6.5-1.6-6.5-8.2v-11h3.4
					v10.4c0,3.6,1.1,6,4.2,6c2.3,0,3.9-1.6,4.5-3.1c0.2-0.5,0.3-1.1,0.3-1.8V37.5h3.4L233.7,51.2L233.7,51.2z"/>
				<path class="st2" d="M239.4,42.6c0-1.9,0-3.5-0.2-5.1h3l0.2,3.1h0.1c0.9-1.8,3.1-3.5,6.2-3.5c2.6,0,6.7,1.6,6.7,8v11.2H252V45.5
					c0-3-1.1-5.6-4.4-5.6c-2.3,0-4,1.6-4.6,3.5c-0.2,0.4-0.2,1-0.2,1.6v11.3h-3.4V42.6z"/>
				<path class="st2" d="M274.4,55.6c-0.9,0.5-2.9,1.1-5.4,1.1c-5.7,0-9.4-3.9-9.4-9.6c0-5.8,4-10,10.1-10c2,0,3.8,0.5,4.7,1
					l-0.8,2.6c-0.8-0.5-2.1-0.9-4-0.9c-4.3,0-6.7,3.2-6.7,7.1c0,4.4,2.8,7,6.5,7c1.9,0,3.2-0.5,4.2-0.9L274.4,55.6z"/>
				<path class="st2" d="M278.4,28.7h3.4v11.8h0.1c0.5-1,1.4-1.8,2.5-2.4c1-0.6,2.2-1,3.5-1c2.5,0,6.6,1.6,6.6,8.1v11.2H291V45.5
					c0-3-1.1-5.6-4.4-5.6c-2.2,0-4,1.6-4.6,3.4c-0.2,0.5-0.2,1-0.2,1.6v11.4h-3.4V28.7z"/>
			</g>
			<g class="st3">
				<path class="st4" d="M248,70.9l-15.9,63.3h-9.3l-13.1-52.5l-12.2,52.5h-9.6l-16.2-63.3h9l12.6,51.9l12.5-51.9h8.5l12.9,53.6
					L240,70.9H248z"/>
				<path class="st4" d="M275.2,135c-7.5,0-13.4-2.1-17.5-6.4c-4.2-4.3-6.2-10.4-6.2-18.3c0-7.8,2-14,6-18.6s9.3-6.9,15.8-6.9
					c2.9,0,5.5,0.4,7.8,1.3c2.2,0.9,4.2,2.2,5.9,4c1.7,1.8,3,4.1,3.9,6.7s1.3,5.9,1.3,9.7v4.4h-32.9c0,5.6,1.4,9.9,4.2,12.9
					c2.8,3,6.6,4.5,11.5,4.5c1.8,0,3.5-0.2,5.2-0.6s3.2-1,4.6-1.6c1.4-0.7,2.7-1.4,3.7-2s1.8-1.3,2.5-1.8h0.5v9
					c-0.9,0.4-2.1,0.8-3.5,1.4c-1.4,0.6-2.6,1-3.7,1.3c-1.6,0.4-3,0.7-4.2,1C278.7,134.9,277.1,135,275.2,135z M284.4,104.7
					c-0.1-2.3-0.3-4.2-0.8-5.9c-0.5-1.6-1.1-3-2-4.2c-0.9-1.3-2.1-2.2-3.6-2.9c-1.5-0.7-3.3-1-5.4-1s-3.9,0.3-5.4,1
					s-2.8,1.6-4.1,2.9c-1.2,1.3-2.1,2.8-2.7,4.4s-1,3.5-1.2,5.6L284.4,104.7L284.4,104.7z"/>
				<path class="st4" d="M332.1,110.4c0-5.8-0.9-10.3-2.6-13.3s-4.5-4.5-8.3-4.5c-2.2,0-4.4,0.5-6.6,1.5s-4.2,2.2-6,3.7V126
					c2,1.1,3.8,1.8,5.3,2.3c1.5,0.4,3.2,0.7,5.1,0.7c4,0,7.2-1.5,9.5-4.5C330.9,121.5,332.1,116.8,332.1,110.4z M339.9,109.5
					c0,7.9-1.8,14.3-5.5,19.1c-3.7,4.8-8.3,7.2-13.9,7.2c-2.5,0-4.7-0.3-6.5-1c-1.8-0.6-3.6-1.5-5.3-2.6l-0.5,1.8h-7.3V68.3h7.8V91
					c2-1.8,4.1-3.3,6.4-4.5s4.9-1.8,7.8-1.8c5.2,0,9.4,2.2,12.4,6.6C338.4,95.7,339.9,101.8,339.9,109.5z"/>
				<path class="st4" d="M362.4,134.2l20.9-63.3h10.2l20.9,63.3h-9.1l-5.8-18.2h-22.2l-5.8,18.2H362.4z M397.3,109l-8.9-27.7
					l-8.9,27.7H397.3z"/>
				<path class="st4" d="M459.5,108.8c0,8-1.9,14.4-5.6,19.1c-3.7,4.7-8.4,7.1-14.1,7.1c-2.3,0-4.3-0.3-6.1-0.8
					c-1.8-0.5-3.6-1.4-5.5-2.5v19.8h-7.8v-65h7.8v4.6c1.9-1.8,4.1-3.3,6.5-4.5s5-1.8,7.8-1.8c5.3,0,9.5,2.2,12.5,6.5
					C458,95.6,459.5,101.5,459.5,108.8z M451.7,109.9c0-5.5-0.9-9.8-2.6-12.8s-4.5-4.6-8.3-4.6c-2.2,0-4.4,0.5-6.5,1.5
					s-4.1,2.3-6,3.9v27.4c2.1,1,3.9,1.7,5.3,2.1c1.5,0.4,3.2,0.6,5.1,0.6c4.1,0,7.3-1.5,9.6-4.6S451.7,115.9,451.7,109.9z"/>
				<path class="st4" d="M507.2,108.8c0,8-1.9,14.4-5.6,19.1c-3.7,4.7-8.4,7.1-14.1,7.1c-2.3,0-4.3-0.3-6.1-0.8
					c-1.8-0.5-3.6-1.4-5.5-2.5v19.8h-7.8v-65h7.8v4.6c1.9-1.8,4.1-3.3,6.5-4.5c2.4-1.2,5-1.8,7.8-1.8c5.3,0,9.5,2.2,12.5,6.5
					S507.2,101.5,507.2,108.8z M499.4,109.9c0-5.5-0.9-9.8-2.6-12.8c-1.7-3-4.5-4.6-8.3-4.6c-2.2,0-4.4,0.5-6.5,1.5
					c-2.1,1-4.1,2.3-6,3.9v27.4c2.1,1,3.9,1.7,5.3,2.1c1.5,0.4,3.2,0.6,5.1,0.6c4.1,0,7.3-1.5,9.6-4.6
					C498.2,120.4,499.4,115.9,499.4,109.9z"/>
			</g>
		</g>
		<text transform="matrix(1 0 0 1 176.7241 136.1982)" class="st2 st5 st6">Weekx</text>
	</g>
</g>
<g id="icon">
	<g id="Layer_3">
		<path class="st7" d="M132.1,141.2H45.3c-6.5,0-11.8-5.3-11.8-11.8V42.6c0-6.5,5.3-11.8,11.8-11.8h86.8c6.5,0,11.8,5.3,11.8,11.8
			v86.8C143.9,135.9,138.6,141.2,132.1,141.2z"/>
	</g>
	<g id="logo">
		<rect x="61.2" y="48.1" class="st8" width="50.9" height="73.8"/>
		<path d="M117.6,122.3l-0.2-0.3c-1.7-2.8-5.8-9.3-8.1-12.9c-4-6.1-8.6-13.2-13.1-20.4c-0.2-0.4-0.3-1.1-0.1-1.5
			c1.4-2.3,2.9-4.5,4.4-6.7l1.8-2.8c2.5-3.8,7.6-11.6,9.4-15.7c0.1-0.1,0.5-0.7,1.2-1.8c0.7-1,1.8-2.6,1.8-2.8
			c0-0.3,0.1-0.5,0.1-0.8c0.1-0.5,0.1-1,0.3-1.4c0.3-0.8,0.7-1.6,1.1-2.4c0.3-0.7,0.6-1.3,0.9-2c0.1-0.3,0.2-0.7,0.3-1.1
			c0-0.1,0-0.3,0.1-0.4l-0.7-0.2l-0.2-0.9c-0.2-0.7-0.3-1.4-0.5-2c0,0-0.2-0.1-0.2-0.1c-0.3,0.1-0.7,0.3-1.2,0.5
			c-0.2,0.1-0.4,0.2-0.7,0.3l-0.9,0.4l0.2-0.6c0.5-2,0-2.9-0.4-3c-0.3-0.1-1.5,0.4-2.6,2.1c-1.3,1.9-2.5,3.9-3.7,5.8
			c-0.7,1.1-1.4,2.2-2.1,3.3c-0.2,0.4-0.5,0.7-0.8,1.1l-0.2,0.3c-1,1.2-4.7,6.5-7.1,10c-1,1.5-1.8,2.6-2.2,3.2
			c-0.8,1.2-1.6,2.5-2.3,3.7c-0.4,0.7-0.8,1.4-1.2,2.1c-0.3,0.5-0.6,0.9-1.1,0.9c0,0,0,0,0,0c-0.5,0-0.8-0.3-1.2-1
			c-0.3-0.6-1-1.7-1.9-3.2c-2.3-4-6.2-10.8-8.4-14.4c-0.3-0.6-0.7-1.1-1-1.7c-1-1.8-2.1-3.7-3.8-5c-0.5-0.4-0.9-1.3-1.4-2.3
			c-0.5-0.9-1-2.1-1.5-2.3c-1-0.7-4.7-0.6-8.3,0.1c-2.4,0.5-4,1.2-4,1.7c-0.4,1.1,1.3,3.6,2.4,5.2c0.3,0.5,0.6,0.9,0.7,1.1l1.9,3.4
			c3.4,6.1,9,16.2,11.4,20.3c1,1.8,2.1,3.5,3.1,5.3c1.1,1.7,2.1,3.5,3.1,5.2c0.2,0.4,0.3,1.2,0,1.6c-0.4,0.8-1,1.6-1.4,2.4
			c-0.2,0.4-0.5,0.8-0.7,1.1l-0.9,1.5c-5.6,9.2-12,19.6-15.8,29.5c0.4,0.3,3.1,0.8,5.3,0.9c0.9,0,1.5-0.1,1.7-0.2
			c0.4-0.3,1-0.2,1.3-0.1c0.1,0,0.2,0.1,0.3,0.1c0.1,0,0.2,0,0.4,0.1c0,0,0.1,0,0.1,0c0.2-0.1,0.4-0.3,0.6-0.4
			c0.7-0.4,1.3-0.8,1.7-1.4c1.4-2.2,3-4.7,4.7-7.2c3-4.7,6.2-9.5,8.8-13.7c0.2-0.3,0.3-0.5,0.5-0.8l0.7-1l0.7,0.8
			c0.1,0.1,0.2,0.2,0.3,0.4c0.8,1.3,1.8,2.8,3,4.4c1.3,1.9,2.6,3.8,3.5,5.3c1.5,2.5,3.1,5.2,4.6,7.9c0.5,0.9,1,1.8,1.5,2.7
			c1.2,2.1,2.5,3.8,4,5.2c0,0,0.1,0,0.2,0.1c0.1,0,0.2,0.1,0.4,0.1c0.3,0.1,0.6,0.3,1,0.4l0.7,0.3c1.3,0.6,1.9,0.7,2.8,0.2
			c0.2-0.1,0.4-0.2,0.7-0.2c0,0,0.1,0,0.1,0c0.4,0,0.8,0.1,1.1,0.2c0.5,0.3,1.1,0.6,1.6,0.9c0.7,0.4,1.5,0.8,2.2,1.2
			c0.1,0,0.3,0.1,0.5,0c0.2,0,0.3-0.1,0.4-0.2c0.2-0.2,0.4-0.4,0.6-0.6c0.6-0.6,1.1-1.1,0.8-2.2l-0.1-0.2l0.4-0.1
			c1-0.2,1.3-0.3,0.8-1.6C118.9,124.4,118.4,123.6,117.6,122.3z"/>
	</g>
</g>
</svg>
