<?xml version="1.0" encoding="utf-8"?>
<!-- Generator: Adobe Illustrator 23.0.2, SVG Export Plug-In . SVG Version: 6.00 Build 0)  -->
<svg version="1.1" id="logo" xmlns="http://www.w3.org/2000/svg" xmlns:xlink="http://www.w3.org/1999/xlink" x="0px" y="0px"
	 viewBox="0 0 284 144" style="enable-background:new 0 0 284 144;" xml:space="preserve">
<style type="text/css">
	.st0{fill:#E56E1F;}
</style>
<rect x="227.3" y="20" class="st0" width="40.9" height="105.4"/>
<path d="M271.8,126.1l-0.1-0.4c-1.4-4-4.6-13.4-6.5-18.5c-3.2-8.7-6.9-18.9-10.6-29.1c-0.2-0.5-0.2-1.6-0.1-2.1
	c1.2-3.2,2.3-6.4,3.5-9.6l1.5-3.9c2-5.4,6.1-16.6,7.5-22.5c0.1-0.2,0.4-1.1,1-2.5c0.6-1.5,1.4-3.6,1.5-3.9c0-0.4,0.1-0.7,0.1-1.1
	c0-0.7,0.1-1.4,0.2-2c0.3-1.2,0.6-2.4,0.8-3.5c0.2-0.9,0.5-1.9,0.7-2.8c0.1-0.5,0.2-1.1,0.2-1.6c0-0.2,0-0.4,0-0.5l-0.6-0.3
	l-0.2-1.3c-0.1-1-0.2-1.9-0.4-2.8c0,0-0.1-0.1-0.2-0.1c-0.2,0.2-0.6,0.4-1,0.7c-0.2,0.1-0.4,0.3-0.5,0.4l-0.7,0.6l0.1-0.9
	c0.4-2.9,0-4.1-0.4-4.2c-0.3-0.1-1.2,0.5-2.1,3c-1,2.7-2,5.6-3,8.3c-0.6,1.6-1.1,3.2-1.7,4.7c-0.2,0.5-0.4,1-0.7,1.5l-0.2,0.4
	c-0.8,1.7-3.8,9.3-5.7,14.3c-0.8,2.1-1.5,3.8-1.8,4.5c-0.7,1.7-1.3,3.5-1.9,5.3c-0.3,1-0.7,2-1,3c-0.3,0.8-0.5,1.2-0.9,1.2
	c0,0,0,0,0,0c-0.4,0-0.6-0.5-0.9-1.4c-0.3-0.8-0.8-2.5-1.5-4.6c-1.9-5.8-5-15.5-6.8-20.6c-0.3-0.8-0.5-1.6-0.8-2.4
	c-0.8-2.6-1.7-5.3-3-7.2c-0.4-0.5-0.7-1.8-1.2-3.3c-0.4-1.3-0.8-2.9-1.2-3.3c-0.8-1-3.8-0.9-6.7,0.1c-2,0.7-3.2,1.7-3.2,2.4
	c-0.3,1.5,1.1,5.2,1.9,7.4c0.3,0.7,0.5,1.3,0.6,1.6l1.5,4.9c2.7,8.7,7.3,23.1,9.2,29c0.8,2.5,1.7,5,2.5,7.5c0.8,2.5,1.7,5,2.5,7.5
	c0.2,0.6,0.2,1.7,0,2.3c-0.4,1.2-0.8,2.3-1.2,3.4c-0.2,0.5-0.4,1.1-0.6,1.6l-0.7,2.1c-4.5,13.1-9.7,27.9-12.7,42.1
	c0.3,0.4,2.5,1.2,4.3,1.2c0.7,0,1.2-0.1,1.4-0.3c0.3-0.4,0.8-0.2,1.1-0.1c0.1,0,0.2,0.1,0.3,0.1c0.1,0,0.2,0,0.3,0.1
	c0,0,0.1,0,0.1,0c0.2-0.2,0.3-0.4,0.5-0.5c0.5-0.6,1-1.2,1.3-2c1.2-3.2,2.4-6.7,3.7-10.3c2.4-6.7,5-13.6,7-19.6
	c0.1-0.4,0.3-0.7,0.4-1.1l0.6-1.4l0.5,1.2c0.1,0.2,0.2,0.3,0.2,0.5c0.6,1.8,1.5,4,2.4,6.3c1,2.7,2.1,5.4,2.8,7.6
	c1.2,3.5,2.5,7.5,3.7,11.3c0.4,1.3,0.8,2.6,1.2,3.8c1,3,2,5.4,3.2,7.4c0,0,0.1,0.1,0.2,0.1c0.1,0,0.2,0.1,0.3,0.1
	c0.3,0.2,0.5,0.4,0.8,0.5l0.6,0.4c1.1,0.8,1.6,1,2.2,0.3c0.1-0.2,0.3-0.3,0.5-0.3c0,0,0,0,0.1,0c0.3,0,0.6,0.1,0.9,0.3
	c0.4,0.4,0.9,0.8,1.3,1.2c0.6,0.6,1.2,1.2,1.8,1.7c0.1,0.1,0.3,0.1,0.4,0c0.2,0,0.3-0.1,0.3-0.2c0.1-0.3,0.3-0.6,0.5-0.9
	c0.5-0.8,0.9-1.6,0.7-3.1l-0.1-0.3l0.3-0.1c0.8-0.3,1-0.4,0.6-2.3C272.9,129,272.5,127.9,271.8,126.1z"/>
<g>
	<path d="M70.3,12.3H77c1.4,0,2.5,1.2,2.3,2.6l-9.8,112.9c-0.1,1.2-1.1,2.2-2.3,2.2H52.3c-1.2,0-2.2-0.9-2.3-2.2l-5.7-64.8
		l-5.7,64.8c-0.1,1.2-1.1,2.2-2.3,2.2H21.5c-1.2,0-2.2-0.9-2.3-2.2L9.3,14.8c-0.1-1.4,1-2.6,2.3-2.6h6.6c1.2,0,2.2,0.9,2.3,2.2
		l9,103.5c0,0.2,0.3,0.2,0.3,0l9-103.5c0.1-1.2,1.1-2.2,2.3-2.2h6c1.2,0,2.2,0.9,2.3,2.2l9,103.4c0,0.2,0.3,0.2,0.3,0l9-103.4
		C68,13.2,69.1,12.3,70.3,12.3z"/>
	<path d="M118.6,22.1h-7.7c-1.3,0-2.4,1.1-2.4,2.4v39.3c0,1.3,1.1,2.4,2.4,2.4h7.7c1.3,0,2.4,1.1,2.4,2.4v5.1c0,1.3-1.1,2.4-2.4,2.4
		h-7.7c-1.3,0-2.4,1.1-2.4,2.4v39.4c0,1.3,1.1,2.4,2.4,2.4h7.7c1.3,0,2.4,1.1,2.4,2.4v5.1c0,1.3-1.1,2.4-2.4,2.4H98.5
		c-1.3,0-2.4-1.1-2.4-2.4V14.6c0-1.3,1.1-2.4,2.4-2.4h20.1c1.3,0,2.4,1.1,2.4,2.4v5.1C121,21,119.9,22.1,118.6,22.1z"/>
	<path d="M160.3,22.1h-7.7c-1.3,0-2.4,1.1-2.4,2.4v39.3c0,1.3,1.1,2.4,2.4,2.4h7.7c1.3,0,2.4,1.1,2.4,2.4v5.1c0,1.3-1.1,2.4-2.4,2.4
		h-7.7c-1.3,0-2.4,1.1-2.4,2.4v39.4c0,1.3,1.1,2.4,2.4,2.4h7.7c1.3,0,2.4,1.1,2.4,2.4v5.1c0,1.3-1.1,2.4-2.4,2.4h-20.1
		c-1.3,0-2.4-1.1-2.4-2.4V14.6c0-1.3,1.1-2.4,2.4-2.4h20.1c1.3,0,2.4,1.1,2.4,2.4v5.1C162.6,21,161.6,22.1,160.3,22.1z"/>
	<path d="M215.6,13.9l-16.5,45.3c-1.2,3.3-1.3,7-0.4,10.4l16.9,58.8c0.2,0.8-0.3,1.5-1.1,1.5h-8c-1,0-2-0.7-2.3-1.7l-13.5-47.1v46.4
		c0,1.3-1.1,2.4-2.4,2.4h-6.6c-1.3,0-2.4-1.1-2.4-2.4V14.6c0-1.3,1.1-2.4,2.4-2.4h6.6c1.3,0,2.4,1.1,2.4,2.4v35.6L204,13.8
		c0.3-0.9,1.2-1.5,2.2-1.5h8.3C215.3,12.3,215.9,13.1,215.6,13.9z"/>
</g>
</svg>
