<?xml version="1.0" encoding="utf-8"?>
<!-- Generator: Adobe Illustrator 23.0.2, SVG Export Plug-In . SVG Version: 6.00 Build 0)  -->
<svg version="1.1" id="Layer_1" xmlns="http://www.w3.org/2000/svg" xmlns:xlink="http://www.w3.org/1999/xlink" x="0px" y="0px"
	 viewBox="0 0 265 541" style="enable-background:new 0 0 265 541;" xml:space="preserve">
<style type="text/css">
	.st0{fill:#FFFFFF;}
	.st1{fill-rule:evenodd;clip-rule:evenodd;fill:#7B7B7B;}
	.st2{opacity:0.496;fill-rule:evenodd;clip-rule:evenodd;fill:#7B7B7B;enable-background:new    ;}
	.st3{fill:#FFA81E;}
	.st4{fill-rule:evenodd;clip-rule:evenodd;fill:#FFFFFF;}
	.st5{enable-background:new    ;}
</style>
<g transform="translate(-2)">
	<g transform="translate(2)">
		<g>
			<path class="st0" d="M230,0H34C15.2,0-0.1,15.4,0,34.5v472c0,19,15.2,34.5,34,34.5h196c18.8,0,34-15.4,34-34.5v-472
				C264,15.4,248.8,0,230,0z M251,503c0,14.2-13.4,27.1-27.3,27.1H39.8c-14.5,0-27.3-12.7-27.3-27.1V45.9H251V503z"/>
		</g>
		<path class="st1" d="M144.6,18.4h-24.2c-1.2,0-2.2,1-2.2,2.2l0,0c0,1.2,1,2.2,2.2,2.2h24.2c1.2,0,2.2-1,2.2-2.2l0,0
			C146.8,19.4,145.8,18.4,144.6,18.4z"/>
		<ellipse class="st2" cx="85.8" cy="20.3" rx="5.1" ry="5.1"/>
		<ellipse class="st2" cx="105.5" cy="20.3" rx="5.1" ry="5.1"/>
		<ellipse class="st2" cx="157.6" cy="20.3" rx="3.2" ry="3.2"/>
		<ellipse class="st1" cx="178" cy="20.3" rx="5.1" ry="5.1"/>
		<g>
			<path class="st3" d="M231.3,14h-31c-0.3,0.1-1.3,0.1-1.7,0.1c-2.9,0-3.8,2.5-3.8,8.3s-6.8,10.7-11.7,10.7H163H88.6H80
				c-2.4,0-11-2.7-11.7-10.7s-0.8-8.3-4.9-8.3c-0.4,0-0.8,0-1.1-0.1H32.2c-11.4,0-19.7,8.4-19.7,19.4v13H251V34.6
				C251,21.5,242,14.1,231.3,14z"/>
		</g>
	</g>
	<g transform="translate(36 19)">
		<path class="st4" d="M195.5,5H206c0.8,0,1.5,0.7,1.5,1.5v2.8c0,0.8-0.7,1.5-1.5,1.5h-10.5c-0.8,0-1.5-0.7-1.5-1.5V6.5
			C194,5.7,194.7,5,195.5,5z M207.8,6.8h0.4c0.2,0,0.4,0.2,0.4,0.5v1.2c0,0.3-0.2,0.5-0.4,0.5h-0.4V6.8z M195.3,5.3
			c-0.5,0-1,0.4-1,1v3.2c0,0.6,0.4,1,1,1h10.9c0.5,0,1-0.4,1-1V6.3c0-0.6-0.4-1-1-1H195.3z M195.1,5.6h11.3c0.3,0,0.5,0.2,0.5,0.5
			v3.5c0,0.3-0.2,0.5-0.5,0.5h-11.3c-0.3,0-0.5-0.2-0.5-0.5V6.1C194.6,5.8,194.8,5.6,195.1,5.6z"/>
		<path class="st4" d="M188.3,10.3l-1.8,1.6l-1.8-1.6c0.4-0.4,1.1-0.7,1.8-0.7S187.9,9.9,188.3,10.3z M190.1,8.7l-0.9,0.8
			c-0.7-0.7-1.7-1.1-2.7-1.1c-1.1,0-2,0.4-2.7,1l-0.9-0.8c0.9-0.8,2.2-1.4,3.6-1.4C187.9,7.3,189.2,7.8,190.1,8.7z M192,7.1
			l-0.9,0.8c-1.1-1.1-2.8-1.7-4.6-1.7s-3.4,0.7-4.6,1.7L181,7.1c1.4-1.3,3.3-2,5.5-2C188.7,5,190.6,5.8,192,7.1z"/>
		<g transform="translate(168 4)">
			<path class="st4" d="M0.9,4.8L0.9,4.8c0.5,0,0.9,0.4,0.9,0.9V7c0.1,0.6-0.3,1-0.9,1l0,0C0.4,8,0,7.6,0,7.1V5.7
				C0,5.2,0.4,4.8,0.9,4.8z"/>
			<path class="st4" d="M4,3.2L4,3.2c0.5,0,0.9,0.4,0.9,0.9V7c0,0.6-0.4,1-0.9,1l0,0C3.5,8,3,7.6,3,7.1v-3C3,3.6,3.5,3.2,4,3.2z"/>
			<path class="st4" d="M7,1.6L7,1.6c0.5,0,1,0.4,1,0.9V7c0,0.6-0.5,1-1,1l0,0C6.5,8,6.1,7.6,6.1,7.1V2.5C6.1,2,6.5,1.6,7,1.6z"/>
			<path class="st4" d="M10.1,0L10.1,0C10.6,0,11,0.4,11,0.9V7c0,0.6-0.4,1-0.9,1l0,0c-0.6,0-1-0.4-1-0.9V0.9C9.1,0.4,9.5,0,10.1,0z
				"/>
		</g>
		<g class="st5">
			<path class="st0" d="M1,10.6h1.3c0.3,0.9,1,1.5,2,1.5c1.6,0,2.5-1.4,2.6-4H6.8l0,0l0,0C6.3,9,5.3,9.6,4.1,9.6
				c-1.9,0-3.2-1.4-3.2-3.3c0-2,1.4-3.4,3.5-3.4c1.5,0,2.6,0.8,3.2,2.2C7.9,5.9,8,6.8,8,7.9c0,3.4-1.4,5.3-3.8,5.3
				C2.6,13.2,1.3,12.2,1,10.6z M6.6,6.3C6.6,5,5.6,4,4.3,4S2.1,5,2.1,6.3S3,8.6,4.3,8.6S6.6,7.6,6.6,6.3z"/>
			<path class="st0" d="M9.6,6.9C9.6,6.4,10,6,10.4,6c0.5,0,0.9,0.4,0.9,0.9s-0.4,0.9-0.9,0.9C10,7.8,9.6,7.4,9.6,6.9z M9.6,12.2
				c0-0.5,0.4-0.9,0.9-0.9s0.9,0.4,0.9,0.9s-0.4,0.9-0.9,0.9C10,13.1,9.6,12.7,9.6,12.2z"/>
			<path class="st0" d="M17.4,11h-4.8V9.8c0.9-1.6,2.4-4,4.2-6.7h1.8v6.7H20V11h-1.4v2h-1.2V11z M13.8,9.9h3.6V4.3h-0.1
				C16.3,5.7,15,7.8,13.8,9.9L13.8,9.9z"/>
			<path class="st0" d="M23.3,7.4h1.2c1.1,0,1.9-0.7,1.9-1.8c0-1-0.8-1.7-1.9-1.7s-1.9,0.6-2,1.7h-1.2c0.1-1.7,1.3-2.8,3.2-2.8
				c1.7,0,3.1,1.1,3.1,2.6c0,1.2-0.6,2-1.7,2.3v0.1c1.3,0.2,2.2,1.1,2.2,2.4c0,1.6-1.5,2.9-3.5,2.9s-3.4-1.1-3.5-2.8h1.2
				c0.1,1.1,1,1.7,2.3,1.7s2.2-0.8,2.2-1.9s-0.9-1.9-2.3-1.9h-1.3L23.3,7.4L23.3,7.4z"/>
		</g>
	</g>
</g>
</svg>
