<svg xmlns="http://www.w3.org/2000/svg" width="67" height="67" viewBox="0 0 67 67">
  <path fill="#FFF" fill-rule="evenodd" d="M136,306 C122.191667,306 111,294.804167 111,281 C111,267.191667 122.191667,256 136,256 C149.804167,256 161,267.191667 161,281 C161,294.804167 149.804167,306 136,306 Z M136.5,248 C118.028937,248 103,263.028937 103,281.5 C103,299.971063 118.028937,315 136.5,315 C154.971063,315 170,299.971063 170,281.5 C170,263.028937 154.971063,248 136.5,248 Z M128,294 L149,281.5 L128,269 L128,294 Z" transform="translate(-103 -248)"/>
</svg>
